<svg width="20" height="20" viewBox="0 0 20 20" xmlns="http://www.w3.org/2000/svg">
  <path d="M18.2 10.2c0-.6-.1-1.2-.2-1.8H10v3.4h4.6c-.2 1.2-.8 2.2-1.8 2.9v2.4h2.9c1.7-1.6 2.7-3.9 2.7-6.6z" fill="#4285F4"/>
  <path d="M10 18.6c2.4 0 4.5-.8 6-2.2l-2.9-2.3c-.8.5-1.8.8-3.1.8-2.4 0-4.4-1.6-5.1-3.8H2v2.4c1.5 3 4.6 5.1 8 5.1z" fill="#34A853"/>
  <path d="M4.9 11.1c-.2-.5-.3-1.1-.3-1.6s.1-1.1.3-1.6V5.5H2C1.4 6.7 1 8.3 1 10s.4 3.3 1 4.5l2.9-2.4z" fill="#FBBC05"/>
  <path d="M10 4.4c1.3 0 2.5.4 3.4 1.3L16.2 3C14.5 1.4 12.4.6 10 .6 6.6.6 3.5 2.7 2 5.5l2.9 2.4c.7-2.2 2.7-3.8 5.1-3.8z" fill="#EA4335"/>
</svg>